<svg xmlns="http://www.w3.org/2000/svg" viewBox="0 0 1440 320"><path fill="#512A66" fill-opacity="1" d="M0,64L30,64C60,64,120,64,180,80C240,96,300,128,360,144C420,160,480,160,540,149.3C600,139,660,117,720,133.3C780,149,840,203,900,208C960,213,1020,171,1080,133.3C1140,96,1200,64,1260,74.7C1320,85,1380,139,1410,165.3L1440,192L1440,320L1410,320C1380,320,1320,320,1260,320C1200,320,1140,320,1080,320C1020,320,960,320,900,320C840,320,780,320,720,320C660,320,600,320,540,320C480,320,420,320,360,320C300,320,240,320,180,320C120,320,60,320,30,320L0,320Z"></path></svg>